<?xml version="1.0" standalone="no"?>
<!DOCTYPE svg PUBLIC "-//W3C//DTD SVG 20010904//EN"
 "http://www.w3.org/TR/2001/REC-SVG-20010904/DTD/svg10.dtd">
<svg version="1.0" xmlns="http://www.w3.org/2000/svg"
 width="295.000000pt" height="400.000000pt" viewBox="0 0 295.000000 400.000000"
 preserveAspectRatio="xMidYMid meet">

<g transform="translate(0.000000,400.000000) scale(0.100000,-0.100000)"
fill="#000000" stroke="none">
<path d="M1580 3803 c-93 -15 -203 -85 -240 -151 -21 -37 -21 -311 -1 -336 9
-11 13 -38 12 -75 -2 -74 23 -111 75 -111 19 0 34 -4 34 -10 0 -14 -19 -12
-74 6 -35 12 -71 15 -139 12 -207 -10 -359 -115 -635 -443 -74 -88 -168 -194
-207 -236 -107 -112 -129 -193 -74 -263 12 -15 15 -24 7 -21 -23 9 -95 -62
-125 -122 -22 -46 -28 -74 -31 -149 -3 -51 1 -123 7 -161 13 -75 198 -904 203
-908 2 -2 66 -9 143 -17 l139 -13 13 -44 c16 -57 6 -98 -46 -174 -27 -39 -42
-74 -46 -105 -3 -26 -11 -66 -16 -88 -14 -54 -5 -95 29 -127 43 -40 100 -51
277 -51 164 0 231 11 256 40 18 22 14 79 -7 112 -10 15 -30 63 -45 107 -14 44
-40 108 -57 142 -18 34 -32 69 -32 76 0 7 -14 40 -32 72 -31 57 -32 63 -40
234 -4 97 -9 186 -12 199 -3 18 0 22 13 16 52 -22 128 -34 223 -34 60 0 110
-4 113 -10 4 -6 -8 -10 -29 -10 -57 0 -71 -32 -70 -155 1 -102 19 -196 70
-361 20 -66 32 -89 62 -116 83 -75 273 -158 363 -158 56 0 92 26 88 63 -2 12
3 33 10 46 31 56 -5 109 -106 160 -42 21 -43 23 -43 70 0 83 9 111 36 111 23
0 36 29 14 31 -5 1 -14 2 -19 3 -17 2 -24 16 -8 16 24 0 32 21 13 35 -13 10
-15 22 -10 54 6 37 10 41 34 41 16 0 35 2 42 5 11 4 18 -11 27 -59 13 -67 51
-159 70 -171 6 -3 26 6 44 22 18 16 73 46 122 68 300 132 591 299 693 398 24
23 57 70 74 104 28 56 30 70 26 130 -9 118 -84 237 -208 328 -44 32 -49 39
-44 65 11 54 -105 368 -180 484 -21 33 -39 75 -41 95 -5 44 -71 208 -118 294
-47 83 -106 148 -160 177 l-45 24 29 36 c37 46 69 128 69 178 0 20 11 59 25
86 14 27 25 62 25 78 0 16 4 27 8 24 4 -2 14 -1 22 5 12 7 9 9 -10 9 -14 0
-31 9 -37 19 -7 11 -22 21 -35 23 -19 2 -26 14 -40 68 -17 63 -17 64 3 87 15
15 20 30 16 49 -2 14 1 38 9 52 7 15 10 29 6 33 -11 9 -179 70 -236 85 -47 13
-188 17 -246 7z m343 -63 l117 -42 -20 -33 c-19 -30 -19 -34 -5 -43 15 -8 15
-10 1 -21 -13 -11 -16 -11 -16 2 0 9 -7 23 -16 32 -20 20 -53 14 -95 -17 l-29
-22 -66 27 c-130 54 -238 46 -306 -23 -42 -42 -50 -88 -22 -128 14 -20 14 -24
0 -44 -9 -12 -16 -30 -16 -39 0 -18 -28 -29 -73 -29 l-29 0 4 139 3 140 35 36
c55 57 84 74 162 95 116 32 223 23 371 -30z m-148 -139 c65 -29 95 -29 134 -2
17 13 36 21 43 19 10 -4 57 -155 58 -187 0 -10 -10 -12 -46 -6 -25 3 -51 2
-57 -3 -20 -16 -87 -24 -102 -12 -18 15 -175 -3 -189 -22 -11 -15 -146 -26
-146 -12 0 4 9 21 20 39 l20 33 -20 36 c-20 33 -21 37 -5 70 26 54 83 78 170
73 43 -2 89 -12 120 -26z m263 -306 c5 -36 6 -67 4 -70 -3 -3 -18 -5 -33 -5
-31 0 -65 25 -73 55 -5 17 -2 21 20 20 15 0 31 8 37 17 16 24 1 34 -22 14 -26
-24 -45 -1 -27 34 9 19 19 24 39 22 17 -2 27 2 28 10 1 28 19 -35 27 -97z m52
90 c9 -10 11 -31 6 -62 -9 -65 -22 -73 -29 -19 -4 25 -9 57 -13 71 -7 29 15
35 36 10z m-425 -5 c-6 -10 77 -6 113 6 25 7 52 -16 52 -44 0 -40 -41 -114
-72 -131 -42 -24 -98 -5 -121 39 -29 56 -13 139 26 140 5 0 5 -5 2 -10z m262
4 c-10 -10 -86 -13 -93 -3 -3 5 18 9 47 9 29 0 50 -3 46 -6z m-354 -31 c27 -4
37 -10 33 -20 -3 -7 -1 -36 5 -64 9 -40 18 -54 42 -70 42 -25 97 -24 130 1 31
24 67 96 67 133 0 24 4 27 33 27 31 0 32 -1 33 -44 1 -34 -2 -43 -12 -39 -16
6 -19 -13 -4 -22 16 -10 12 -45 -5 -45 -8 0 -24 5 -35 12 -24 15 -39 3 -19
-16 29 -28 57 -29 82 -3 20 22 25 24 42 11 10 -8 31 -14 47 -14 35 0 37 -25 7
-104 -49 -132 -196 -197 -312 -139 -37 19 -49 7 -19 -18 51 -41 142 -46 226
-13 17 7 19 4 12 -27 -10 -55 -71 -173 -111 -217 -128 -142 -340 -99 -435 89
-29 55 -50 159 -50 244 0 89 6 98 50 85 19 -6 47 -10 62 -10 20 0 41 -14 76
-50 47 -48 74 -61 87 -40 3 6 -5 14 -18 19 -29 11 -105 97 -113 128 -5 18 -11
21 -33 17 -55 -11 -83 66 -42 117 17 21 22 22 45 11 38 -17 39 -16 32 22 -5
28 -3 35 11 39 28 7 45 7 86 0z m-123 -18 c0 -10 -10 -15 -29 -15 -17 0 -33
-5 -36 -10 -8 -13 -25 -3 -25 15 0 13 22 21 68 24 13 0 22 -5 22 -14z m-618
-615 c81 -30 193 -97 193 -117 0 -15 -124 -121 -203 -173 -41 -27 -91 -52
-113 -55 -42 -7 -54 -25 -16 -25 46 0 114 -59 197 -168 57 -76 103 -125 160
-170 92 -71 111 -98 140 -196 37 -120 13 -284 -55 -376 -31 -42 -32 -24 -5 62
11 34 20 71 20 81 0 37 -23 10 -46 -53 -21 -59 -74 -131 -74 -102 0 8 14 47
31 88 17 41 29 78 26 81 -10 10 -27 -8 -51 -55 -21 -42 -76 -106 -76 -89 0 4
13 42 29 86 16 44 27 82 23 85 -11 12 -18 5 -30 -28 -7 -18 -21 -41 -31 -50
-18 -16 -18 -13 4 56 12 40 28 86 34 101 6 16 11 52 11 81 0 70 -28 111 -107
156 -34 19 -94 63 -135 98 -40 34 -111 82 -157 105 -77 39 -91 42 -162 42 -42
0 -75 3 -73 6 2 4 -3 20 -11 35 -32 61 -13 112 75 204 34 36 109 122 168 193
79 95 111 127 128 127 13 0 60 -14 106 -30z m1443 -297 c52 -70 138 -250 185
-387 37 -110 39 -121 25 -142 -40 -61 -69 -77 -235 -128 -47 -14 -98 -36 -113
-48 l-29 -23 16 -106 c9 -59 16 -140 15 -180 -1 -73 -1 -74 -15 -41 -8 18 -17
60 -21 93 -14 134 -45 49 -53 -146 l-5 -140 -23 69 c-12 37 -22 90 -22 116 0
59 -10 110 -21 110 -5 0 -9 -73 -10 -162 l-1 -163 -19 60 c-11 33 -23 105 -26
160 -6 93 -8 97 -15 55 -5 -25 -7 -65 -4 -90 5 -51 -8 -134 -17 -110 -58 152
-46 263 49 444 128 243 167 329 171 375 4 42 -1 56 -67 166 l-71 119 38 33
c67 59 167 109 220 112 7 1 29 -20 48 -46z m-1453 -63 c-4 -29 -10 -30 -40 -7
-11 8 -9 13 10 23 33 19 35 18 30 -16z m1254 -276 c11 -62 10 -63 -161 -115
-88 -26 -164 -48 -169 -49 -13 0 1 71 24 124 10 25 54 100 96 166 l77 119 64
-106 c34 -59 65 -121 69 -139z m-1524 42 c99 -41 236 -152 371 -303 45 -50 47
-80 12 -190 -29 -91 -31 -119 -10 -131 13 -7 14 -14 6 -35 -19 -49 4 -71 45
-43 18 13 20 12 19 -12 0 -32 28 -41 54 -18 15 14 19 14 34 -5 14 -15 21 -17
37 -9 31 17 69 80 91 153 l21 67 36 -31 c105 -92 240 -76 346 42 54 60 115
177 123 237 l5 38 144 39 c80 21 147 35 150 32 7 -6 -9 -37 -102 -202 -96
-172 -126 -261 -123 -369 l3 -81 -55 -27 c-105 -53 -147 -58 -476 -58 -234 0
-311 3 -336 14 l-33 13 -13 174 c-13 187 -22 245 -42 263 -9 8 -10 7 -6 -7 7
-20 -4 -16 -35 11 -24 20 -23 6 3 -30 29 -40 38 -123 52 -495 l12 -312 -83 -7
c-84 -7 -362 11 -373 24 -5 6 -118 491 -196 837 -48 217 -14 378 90 426 60 27
156 25 229 -5z m392 -251 c29 -44 11 -39 -25 6 -25 31 -28 39 -12 31 11 -6 28
-23 37 -37z m1648 -118 c89 -101 130 -177 136 -253 6 -73 -18 -132 -75 -190
-99 -98 -414 -282 -668 -390 -49 -21 -106 -48 -125 -61 -32 -21 -36 -22 -47
-7 -29 40 -62 172 -76 310 -5 40 -4 42 39 63 25 11 46 21 49 21 2 0 15 -25 29
-55 25 -55 56 -81 64 -55 3 9 10 6 23 -11 28 -37 53 -16 59 52 l5 54 14 -44
c15 -45 37 -63 51 -41 4 7 11 62 15 123 l7 110 18 -40 c10 -22 23 -43 28 -47
19 -12 32 31 32 107 l0 74 56 2 c82 3 140 31 98 48 -15 6 -112 -9 -148 -23 -9
-3 -15 19 -24 81 -6 47 -9 91 -6 98 2 7 51 28 107 46 107 35 175 67 217 100
14 11 30 19 35 17 6 -1 45 -42 87 -89z m-882 -584 c0 -16 3 -51 6 -79 l6 -51
-86 -18 c-47 -10 -86 -22 -86 -27 0 -16 -47 -7 -66 13 -24 26 -24 97 0 133 13
21 25 26 59 27 23 0 65 7 92 14 73 18 75 18 75 -12z m-268 -20 c-5 -10 -12
-37 -16 -60 -15 -101 65 -175 155 -144 18 6 34 9 37 7 12 -13 -10 -53 -35 -63
-28 -11 -28 -11 -5 -18 12 -4 22 -11 22 -15 0 -4 -10 -15 -22 -23 -20 -14 -20
-16 -5 -16 16 -1 17 -7 10 -53 -12 -86 -10 -123 7 -123 35 -1 140 -92 140
-123 0 -11 -12 -27 -26 -37 -25 -16 -25 -17 -7 -37 17 -19 17 -20 -2 -34 -32
-24 -131 4 -266 72 -117 61 -134 80 -169 203 -47 166 -61 250 -58 352 3 89 4
94 26 97 21 3 22 0 22 -52 0 -62 59 -336 91 -420 39 -105 100 -165 203 -200
51 -18 112 -21 120 -7 9 14 -15 27 -75 40 -31 6 -77 25 -103 41 -69 44 -100
101 -136 253 -17 73 -43 172 -57 221 -24 84 -24 91 -9 122 l16 34 75 0 c69 0
75 -2 67 -17z m-527 -353 c10 -11 16 -22 14 -24 -2 -2 -28 1 -57 6 -50 10 -82
6 -138 -18 -6 -2 -16 7 -22 20 l-11 25 72 4 c40 1 84 4 98 5 15 1 33 -6 44
-18z m-2 -64 c53 -22 64 -40 110 -184 65 -201 64 -189 20 -202 -69 -19 -187
-32 -243 -26 -108 13 -151 26 -161 53 -16 42 -10 106 15 159 23 50 24 51 77
57 30 4 87 7 127 7 65 0 73 2 70 18 -3 14 -14 17 -68 17 -36 0 -85 -4 -109 -9
-35 -6 -42 -5 -39 5 3 10 31 15 106 17 84 2 102 5 102 18 0 13 -15 15 -95 12
l-96 -3 6 25 c3 14 13 31 22 38 22 16 115 15 156 -2z m-213 -417 c85 -29 238
-32 323 -6 32 10 67 15 78 12 27 -9 20 -37 -13 -52 -36 -18 -248 -27 -342 -15
-89 12 -123 31 -143 81 -13 32 -13 32 9 17 13 -8 52 -24 88 -37z"/>
<path d="M1691 3314 c-1 -24 28 -54 51 -54 19 0 48 32 48 53 0 23 -17 21 -30
-3 -14 -26 -34 -25 -53 3 -16 22 -16 22 -16 1z"/>
<path d="M1390 3240 c0 -5 9 -10 20 -10 10 0 31 -5 45 -12 30 -13 43 -5 25 17
-14 17 -90 21 -90 5z"/>
<path d="M1834 3131 c-10 -10 21 -31 46 -31 25 0 64 28 44 31 -22 4 -86 4 -90
0z"/>
<path d="M1470 1405 c0 -3 7 -19 15 -35 20 -39 77 -72 117 -68 46 4 36 21 -23
37 -28 8 -63 27 -80 43 -16 16 -29 27 -29 23z"/>
</g>
</svg>
